<svg width="273" height="268" viewBox="0 0 273 268" fill="none" xmlns="http://www.w3.org/2000/svg">
<g clip-path="url(#clip0_560_12)">
<path fill-rule="evenodd" clip-rule="evenodd" d="M129.953 1.63132C124.742 3.62832 119.531 9.80132 117.88 15.9333C115.336 25.3803 119.268 27.7653 122.033 18.4513C124.753 9.28932 130.063 4.81332 138.214 4.81332C146.804 4.81332 153.409 12.5423 154.589 23.9743L155.14 29.3133H137.776C121.654 29.3133 119.804 29.5073 111.912 32.0233C102.972 34.8733 94.4001 39.5333 87.1091 45.5073C82.2711 49.4723 81.1221 51.4243 82.6981 53.0003C83.4351 53.7373 85.8821 52.3853 90.8551 48.4943C105.266 37.2193 116.08 33.8503 137.932 33.8283C154.656 33.8113 162.788 35.5373 174.174 41.5203C181.378 45.3063 192.943 55.3013 196.985 61.2363C199.565 65.0233 201.604 65.7793 202.555 63.3003C203.383 61.1443 195.634 51.4683 188.092 45.2393C181.623 39.8963 171.588 34.3923 164.496 32.2983L160.516 31.1233L159.199 23.3253C157.742 14.7003 153.909 6.63632 149.963 3.89232C143.81 -0.384684 137.171 -1.13468 129.953 1.63132ZM62.0331 110.091C60.7061 111.418 60.5581 119.706 61.8251 121.709C62.3111 122.476 63.4301 122.828 64.3101 122.49C65.5291 122.022 65.9111 120.461 65.9111 115.951C65.9111 109.9 64.4431 107.681 62.0331 110.091ZM210.6 114.459C209.746 115.312 209.852 133.539 210.75 140.313C211.294 144.426 211.767 145.313 213.412 145.313C215.296 145.313 215.392 144.764 215.059 135.813C214.385 117.672 213.176 111.882 210.6 114.459ZM59.0171 151.083C58.5591 152.309 57.1761 157.588 55.9421 162.813C54.7091 168.038 48.1231 187.189 41.3061 205.371C34.4891 223.553 28.9111 239.4 28.9111 240.587C28.9111 244.021 34.2351 249.165 41.4091 252.663C52.5511 258.096 70.7801 262.351 96.0601 265.42C113.636 267.554 158.819 267.886 175.412 266.004C217.791 261.196 244.125 252.225 246.411 241.817C246.829 239.915 245.46 234.938 241.845 225.207C236.569 211.006 234.937 208.061 233.008 209.254C231.398 210.249 231.633 211.781 234.466 218.753C235.871 222.21 236.815 225.243 236.565 225.493C236.315 225.743 233.929 224.855 231.261 223.519C221.38 218.571 204.969 214.237 184.412 211.145C166.857 208.504 110.058 208.512 91.4111 211.157C70.6381 214.104 55.2651 218.161 44.5621 223.52C41.8941 224.855 39.5111 225.747 39.2661 225.501C39.0201 225.256 43.1061 213.68 48.3451 199.778C57.1831 176.328 62.9111 157.646 62.9111 152.272C62.9111 149.125 60.0721 148.258 59.0171 151.083ZM168.412 214.314C195.356 216.676 214.801 220.886 228.254 227.27C236.029 230.959 241.912 236.398 241.912 239.896C241.912 246.605 219.646 255.146 191.425 259.262C154.648 264.626 103.225 263.621 70.9111 256.906C53.6491 253.32 40.4851 248.387 35.8771 243.779C28.9571 236.859 42.2181 226.894 66.5261 220.746C82.7551 216.642 113.932 212.516 113.897 214.478C113.889 214.937 113.233 217.113 112.441 219.313C107.937 231.815 113.883 246.132 126.111 252.225C140.501 259.395 158.93 251.594 163.435 236.425C165.931 228.018 164.887 218.813 161.437 218.813C160.205 218.813 159.912 220.263 159.912 226.353C159.912 235.381 157.968 239.897 151.816 245.163C140.858 254.543 124.617 250.955 117.832 237.656C114.371 230.871 115.948 217.596 120.636 214.063C122.954 212.316 147.069 212.442 168.412 214.314Z" fill="white"/>
<path d="M203.762 74.4227C207.008 68.6717 210.825 65.3607 217.367 62.6197C222.388 60.5167 234.436 60.3117 241.561 62.2087C248.138 63.9597 255.946 68.2127 261.401 73.0137C266.536 77.5337 271.935 85.6457 272.211 89.2557C272.386 91.5417 271.725 92.1497 266.911 94.1337C263.886 95.3807 258.213 98.4927 254.305 101.048C244.008 107.781 236.37 110.122 226.37 109.607C213.412 108.94 203.719 102.898 200.775 93.6537C199.432 89.4357 199.285 89.3227 195.56 89.6187C193.451 89.7857 188.676 91.0237 184.948 92.3687C181.219 93.7137 177.452 94.8137 176.575 94.8137C174.227 94.8137 172.604 91.2557 173.872 88.8867C175.382 86.0647 184.584 82.8377 198.562 80.2267C199.913 79.9747 201.849 77.8137 203.762 74.4227Z" fill="#C7E1F1"/>
<path d="M128.442 105.795C134.45 102.327 141.851 98.447 144.888 97.171C151.043 94.587 154.706 94.508 156.219 96.927C158.049 99.851 156.109 101.705 146.535 106.179C141.332 108.611 132.65 113.206 127.243 116.39C107.268 128.154 85.3739 137.168 70.3249 139.824C59.9709 141.651 36.4249 140.625 27.5669 137.96C19.7379 135.604 13.1789 132.591 7.39389 128.693C-0.418118 123.429 -1.85211 120.052 2.49888 117.168C4.38789 115.916 5.03189 116.125 9.27089 119.362C23.0319 129.869 43.8329 134.591 64.4229 131.881C81.2269 129.67 101.129 121.561 128.442 105.795Z" fill="#C7E1F1"/>
<path d="M150.636 172.722C166.174 163.902 185.084 157.135 198.911 155.447C205.218 154.677 216.862 155.863 221.187 157.717C233.343 162.928 239.468 175.61 235.93 188.245C232.086 201.973 213.486 209.496 200.24 202.68C194.622 199.788 191.815 195.777 193.518 193.072C195.264 190.299 197.728 190.414 202.15 193.476C205.481 195.782 207.291 196.306 211.829 196.276C218.361 196.232 222.434 194.182 225.828 189.23C227.796 186.357 228.086 184.912 227.717 179.811C226.996 169.838 221.429 165.026 209.507 164.069C192.539 162.707 163.55 172.952 143.565 187.373C139.8 190.09 135.895 192.909 134.888 193.637C133.476 194.657 132.567 194.699 130.923 193.82C125.117 190.712 132.09 183.249 150.636 172.722Z" fill="#C7E1F1"/>
<path d="M40.3186 63.4515C41.1726 58.9025 46.5516 53.0115 51.4106 51.3055C60.4416 48.1355 68.4766 50.0195 75.1196 56.8675C81.0076 62.9375 83.4626 70.2545 82.5486 79.0065C80.9696 94.1095 70.6606 102.784 54.2656 102.803C39.5786 102.821 22.3456 95.7015 6.66056 83.1355C0.0375633 77.8295 -1.28745 75.4115 1.11055 73.0135C3.30355 70.8205 5.82656 71.7595 13.9696 77.7965C43.3656 99.5925 71.9166 99.8475 73.7006 78.3295C74.2416 71.8075 72.1576 65.3335 68.3716 61.7765C66.5246 60.0415 64.4056 59.3325 60.1466 59.0265C55.1256 58.6645 54.0986 58.9145 51.9106 61.0325C50.5356 62.3625 48.6436 64.8825 47.7076 66.6325C46.4696 68.9445 45.2986 69.8135 43.4256 69.8135C40.3566 69.8135 39.4666 67.9915 40.3186 63.4515Z" fill="#C7E1F1"/>
</g>
<defs>
<clipPath id="clip0_560_12">
<rect width="273" height="268" fill="white"/>
</clipPath>
</defs>
</svg>
